<svg xmlns="http://www.w3.org/2000/svg" width="1900" height="700" viewBox="0 0 1900 700">
<rect width="100%" height="100%" fill="#ffffff"/>
<text x="950.0" y="38" text-anchor="middle" font-family="Arial" font-size="24" font-weight="bold">Boxplot de tasa de inconsistencia verificable</text>
<line x1="95" y1="510.00" x2="1865" y2="510.00" stroke="#e5e7eb"/>
<text x="85" y="514.00" text-anchor="end" font-family="Arial" font-size="12" fill="#374151">0%</text>
<line x1="95" y1="423.00" x2="1865" y2="423.00" stroke="#e5e7eb"/>
<text x="85" y="427.00" text-anchor="end" font-family="Arial" font-size="12" fill="#374151">20%</text>
<line x1="95" y1="336.00" x2="1865" y2="336.00" stroke="#e5e7eb"/>
<text x="85" y="340.00" text-anchor="end" font-family="Arial" font-size="12" fill="#374151">40%</text>
<line x1="95" y1="249.00" x2="1865" y2="249.00" stroke="#e5e7eb"/>
<text x="85" y="253.00" text-anchor="end" font-family="Arial" font-size="12" fill="#374151">60%</text>
<line x1="95" y1="162.00" x2="1865" y2="162.00" stroke="#e5e7eb"/>
<text x="85" y="166.00" text-anchor="end" font-family="Arial" font-size="12" fill="#374151">80%</text>
<line x1="95" y1="75.00" x2="1865" y2="75.00" stroke="#e5e7eb"/>
<text x="85" y="79.00" text-anchor="end" font-family="Arial" font-size="12" fill="#374151">100%</text>
<line x1="95" y1="75" x2="95" y2="510" stroke="#111827"/>
<line x1="95" y1="510" x2="1865" y2="510" stroke="#111827"/>
<line x1="131.88" y1="510.00" x2="131.88" y2="510.00" stroke="#374151"/>
<line x1="117.88" y1="510.00" x2="145.88" y2="510.00" stroke="#374151"/>
<line x1="117.88" y1="510.00" x2="145.88" y2="510.00" stroke="#374151"/>
<rect x="110.88" y="510.00" width="42.00" height="1.00" fill="#4e79a7" fill-opacity="0.65" stroke="#4e79a7"/>
<line x1="110.88" y1="510.00" x2="152.88" y2="510.00" stroke="#111827" stroke-width="3"/>
<text x="131.88" y="528" transform="rotate(55 131.88 528)" text-anchor="start" font-family="Arial" font-size="11">none/c50/2pc</text>
<line x1="205.62" y1="510.00" x2="205.62" y2="75.00" stroke="#374151"/>
<line x1="191.62" y1="510.00" x2="219.62" y2="510.00" stroke="#374151"/>
<line x1="191.62" y1="75.00" x2="219.62" y2="75.00" stroke="#374151"/>
<rect x="184.62" y="423.78" width="42.00" height="86.22" fill="#f28e2b" fill-opacity="0.65" stroke="#f28e2b"/>
<line x1="184.62" y1="510.00" x2="226.62" y2="510.00" stroke="#111827" stroke-width="3"/>
<text x="205.62" y="528" transform="rotate(55 205.62 528)" text-anchor="start" font-family="Arial" font-size="11">none/c50/saga</text>
<line x1="279.38" y1="508.93" x2="279.38" y2="467.10" stroke="#374151"/>
<line x1="265.38" y1="508.93" x2="293.38" y2="508.93" stroke="#374151"/>
<line x1="265.38" y1="467.10" x2="293.38" y2="467.10" stroke="#374151"/>
<rect x="258.38" y="506.93" width="42.00" height="1.03" fill="#4e79a7" fill-opacity="0.65" stroke="#4e79a7"/>
<line x1="258.38" y1="507.82" x2="300.38" y2="507.82" stroke="#111827" stroke-width="3"/>
<text x="279.38" y="528" transform="rotate(55 279.38 528)" text-anchor="start" font-family="Arial" font-size="11">none/c100/2pc</text>
<line x1="353.12" y1="508.03" x2="353.12" y2="75.00" stroke="#374151"/>
<line x1="339.12" y1="508.03" x2="367.12" y2="508.03" stroke="#374151"/>
<line x1="339.12" y1="75.00" x2="367.12" y2="75.00" stroke="#374151"/>
<rect x="332.12" y="75.00" width="42.00" height="430.80" fill="#f28e2b" fill-opacity="0.65" stroke="#f28e2b"/>
<line x1="332.12" y1="500.78" x2="374.12" y2="500.78" stroke="#111827" stroke-width="3"/>
<text x="353.12" y="528" transform="rotate(55 353.12 528)" text-anchor="start" font-family="Arial" font-size="11">none/c100/saga</text>
<line x1="426.88" y1="438.16" x2="426.88" y2="378.03" stroke="#374151"/>
<line x1="412.88" y1="438.16" x2="440.88" y2="438.16" stroke="#374151"/>
<line x1="412.88" y1="378.03" x2="440.88" y2="378.03" stroke="#374151"/>
<rect x="405.88" y="398.66" width="42.00" height="30.82" fill="#4e79a7" fill-opacity="0.65" stroke="#4e79a7"/>
<line x1="405.88" y1="428.23" x2="447.88" y2="428.23" stroke="#111827" stroke-width="3"/>
<text x="426.88" y="528" transform="rotate(55 426.88 528)" text-anchor="start" font-family="Arial" font-size="11">none/c200/2pc</text>
<line x1="500.62" y1="457.54" x2="500.62" y2="75.00" stroke="#374151"/>
<line x1="486.62" y1="457.54" x2="514.62" y2="457.54" stroke="#374151"/>
<line x1="486.62" y1="75.00" x2="514.62" y2="75.00" stroke="#374151"/>
<rect x="479.62" y="75.00" width="42.00" height="370.21" fill="#f28e2b" fill-opacity="0.65" stroke="#f28e2b"/>
<line x1="479.62" y1="351.70" x2="521.62" y2="351.70" stroke="#111827" stroke-width="3"/>
<text x="500.62" y="528" transform="rotate(55 500.62 528)" text-anchor="start" font-family="Arial" font-size="11">none/c200/saga</text>
<line x1="574.38" y1="456.85" x2="574.38" y2="385.71" stroke="#374151"/>
<line x1="560.38" y1="456.85" x2="588.38" y2="456.85" stroke="#374151"/>
<line x1="560.38" y1="385.71" x2="588.38" y2="385.71" stroke="#374151"/>
<rect x="553.38" y="421.19" width="42.00" height="14.63" fill="#4e79a7" fill-opacity="0.65" stroke="#4e79a7"/>
<line x1="553.38" y1="427.50" x2="595.38" y2="427.50" stroke="#111827" stroke-width="3"/>
<text x="574.38" y="528" transform="rotate(55 574.38 528)" text-anchor="start" font-family="Arial" font-size="11">none/c400/2pc</text>
<line x1="648.12" y1="455.44" x2="648.12" y2="75.00" stroke="#374151"/>
<line x1="634.12" y1="455.44" x2="662.12" y2="455.44" stroke="#374151"/>
<line x1="634.12" y1="75.00" x2="662.12" y2="75.00" stroke="#374151"/>
<rect x="627.12" y="75.00" width="42.00" height="371.96" fill="#f28e2b" fill-opacity="0.65" stroke="#f28e2b"/>
<line x1="627.12" y1="440.95" x2="669.12" y2="440.95" stroke="#111827" stroke-width="3"/>
<text x="648.12" y="528" transform="rotate(55 648.12 528)" text-anchor="start" font-family="Arial" font-size="11">none/c400/saga</text>
<line x1="721.88" y1="478.21" x2="721.88" y2="436.15" stroke="#374151"/>
<line x1="707.88" y1="478.21" x2="735.88" y2="478.21" stroke="#374151"/>
<line x1="707.88" y1="436.15" x2="735.88" y2="436.15" stroke="#374151"/>
<rect x="700.88" y="455.33" width="42.00" height="18.92" fill="#4e79a7" fill-opacity="0.65" stroke="#4e79a7"/>
<line x1="700.88" y1="459.81" x2="742.88" y2="459.81" stroke="#111827" stroke-width="3"/>
<text x="721.88" y="528" transform="rotate(55 721.88 528)" text-anchor="start" font-family="Arial" font-size="11">omission/c50/2pc</text>
<line x1="795.62" y1="465.70" x2="795.62" y2="75.00" stroke="#374151"/>
<line x1="781.62" y1="465.70" x2="809.62" y2="465.70" stroke="#374151"/>
<line x1="781.62" y1="75.00" x2="809.62" y2="75.00" stroke="#374151"/>
<rect x="774.62" y="75.00" width="42.00" height="390.67" fill="#f28e2b" fill-opacity="0.65" stroke="#f28e2b"/>
<line x1="774.62" y1="442.38" x2="816.62" y2="442.38" stroke="#111827" stroke-width="3"/>
<text x="795.62" y="528" transform="rotate(55 795.62 528)" text-anchor="start" font-family="Arial" font-size="11">omission/c50/saga</text>
<line x1="869.38" y1="470.04" x2="869.38" y2="434.15" stroke="#374151"/>
<line x1="855.38" y1="470.04" x2="883.38" y2="470.04" stroke="#374151"/>
<line x1="855.38" y1="434.15" x2="883.38" y2="434.15" stroke="#374151"/>
<rect x="848.38" y="438.91" width="42.00" height="29.16" fill="#4e79a7" fill-opacity="0.65" stroke="#4e79a7"/>
<line x1="848.38" y1="466.39" x2="890.38" y2="466.39" stroke="#111827" stroke-width="3"/>
<text x="869.38" y="528" transform="rotate(55 869.38 528)" text-anchor="start" font-family="Arial" font-size="11">omission/c100/2pc</text>
<line x1="943.12" y1="463.86" x2="943.12" y2="75.00" stroke="#374151"/>
<line x1="929.12" y1="463.86" x2="957.12" y2="463.86" stroke="#374151"/>
<line x1="929.12" y1="75.00" x2="957.12" y2="75.00" stroke="#374151"/>
<rect x="922.12" y="75.00" width="42.00" height="388.86" fill="#f28e2b" fill-opacity="0.65" stroke="#f28e2b"/>
<line x1="922.12" y1="449.58" x2="964.12" y2="449.58" stroke="#111827" stroke-width="3"/>
<text x="943.12" y="528" transform="rotate(55 943.12 528)" text-anchor="start" font-family="Arial" font-size="11">omission/c100/saga</text>
<line x1="1016.88" y1="391.54" x2="1016.88" y2="336.52" stroke="#374151"/>
<line x1="1002.88" y1="391.54" x2="1030.88" y2="391.54" stroke="#374151"/>
<line x1="1002.88" y1="336.52" x2="1030.88" y2="336.52" stroke="#374151"/>
<rect x="995.88" y="375.40" width="42.00" height="12.49" fill="#4e79a7" fill-opacity="0.65" stroke="#4e79a7"/>
<line x1="995.88" y1="376.75" x2="1037.88" y2="376.75" stroke="#111827" stroke-width="3"/>
<text x="1016.88" y="528" transform="rotate(55 1016.88 528)" text-anchor="start" font-family="Arial" font-size="11">omission/c200/2pc</text>
<line x1="1090.62" y1="375.94" x2="1090.62" y2="75.00" stroke="#374151"/>
<line x1="1076.62" y1="375.94" x2="1104.62" y2="375.94" stroke="#374151"/>
<line x1="1076.62" y1="75.00" x2="1104.62" y2="75.00" stroke="#374151"/>
<rect x="1069.62" y="75.00" width="42.00" height="276.44" fill="#f28e2b" fill-opacity="0.65" stroke="#f28e2b"/>
<line x1="1069.62" y1="314.76" x2="1111.62" y2="314.76" stroke="#111827" stroke-width="3"/>
<text x="1090.62" y="528" transform="rotate(55 1090.62 528)" text-anchor="start" font-family="Arial" font-size="11">omission/c200/saga</text>
<line x1="1164.38" y1="399.41" x2="1164.38" y2="216.13" stroke="#374151"/>
<line x1="1150.38" y1="399.41" x2="1178.38" y2="399.41" stroke="#374151"/>
<line x1="1150.38" y1="216.13" x2="1178.38" y2="216.13" stroke="#374151"/>
<rect x="1143.38" y="336.00" width="42.00" height="57.08" fill="#4e79a7" fill-opacity="0.65" stroke="#4e79a7"/>
<line x1="1143.38" y1="358.48" x2="1185.38" y2="358.48" stroke="#111827" stroke-width="3"/>
<text x="1164.38" y="528" transform="rotate(55 1164.38 528)" text-anchor="start" font-family="Arial" font-size="11">omission/c400/2pc</text>
<line x1="1238.12" y1="368.96" x2="1238.12" y2="75.00" stroke="#374151"/>
<line x1="1224.12" y1="368.96" x2="1252.12" y2="368.96" stroke="#374151"/>
<line x1="1224.12" y1="75.00" x2="1252.12" y2="75.00" stroke="#374151"/>
<rect x="1217.12" y="75.00" width="42.00" height="261.00" fill="#f28e2b" fill-opacity="0.65" stroke="#f28e2b"/>
<line x1="1217.12" y1="261.87" x2="1259.12" y2="261.87" stroke="#111827" stroke-width="3"/>
<text x="1238.12" y="528" transform="rotate(55 1238.12 528)" text-anchor="start" font-family="Arial" font-size="11">omission/c400/saga</text>
<line x1="1311.88" y1="510.00" x2="1311.88" y2="510.00" stroke="#374151"/>
<line x1="1297.88" y1="510.00" x2="1325.88" y2="510.00" stroke="#374151"/>
<line x1="1297.88" y1="510.00" x2="1325.88" y2="510.00" stroke="#374151"/>
<rect x="1290.88" y="510.00" width="42.00" height="1.00" fill="#4e79a7" fill-opacity="0.65" stroke="#4e79a7"/>
<line x1="1290.88" y1="510.00" x2="1332.88" y2="510.00" stroke="#111827" stroke-width="3"/>
<text x="1311.88" y="528" transform="rotate(55 1311.88 528)" text-anchor="start" font-family="Arial" font-size="11">timing/c50/2pc</text>
<line x1="1385.62" y1="510.00" x2="1385.62" y2="75.00" stroke="#374151"/>
<line x1="1371.62" y1="510.00" x2="1399.62" y2="510.00" stroke="#374151"/>
<line x1="1371.62" y1="75.00" x2="1399.62" y2="75.00" stroke="#374151"/>
<rect x="1364.62" y="75.00" width="42.00" height="433.04" fill="#f28e2b" fill-opacity="0.65" stroke="#f28e2b"/>
<line x1="1364.62" y1="502.80" x2="1406.62" y2="502.80" stroke="#111827" stroke-width="3"/>
<text x="1385.62" y="528" transform="rotate(55 1385.62 528)" text-anchor="start" font-family="Arial" font-size="11">timing/c50/saga</text>
<line x1="1459.38" y1="510.00" x2="1459.38" y2="490.06" stroke="#374151"/>
<line x1="1445.38" y1="510.00" x2="1473.38" y2="510.00" stroke="#374151"/>
<line x1="1445.38" y1="490.06" x2="1473.38" y2="490.06" stroke="#374151"/>
<rect x="1438.38" y="496.30" width="42.00" height="13.70" fill="#4e79a7" fill-opacity="0.65" stroke="#4e79a7"/>
<line x1="1438.38" y1="505.69" x2="1480.38" y2="505.69" stroke="#111827" stroke-width="3"/>
<text x="1459.38" y="528" transform="rotate(55 1459.38 528)" text-anchor="start" font-family="Arial" font-size="11">timing/c100/2pc</text>
<line x1="1533.12" y1="509.10" x2="1533.12" y2="75.00" stroke="#374151"/>
<line x1="1519.12" y1="509.10" x2="1547.12" y2="509.10" stroke="#374151"/>
<line x1="1519.12" y1="75.00" x2="1547.12" y2="75.00" stroke="#374151"/>
<rect x="1512.12" y="75.00" width="42.00" height="432.12" fill="#f28e2b" fill-opacity="0.65" stroke="#f28e2b"/>
<line x1="1512.12" y1="505.85" x2="1554.12" y2="505.85" stroke="#111827" stroke-width="3"/>
<text x="1533.12" y="528" transform="rotate(55 1533.12 528)" text-anchor="start" font-family="Arial" font-size="11">timing/c100/saga</text>
<line x1="1606.88" y1="440.80" x2="1606.88" y2="342.08" stroke="#374151"/>
<line x1="1592.88" y1="440.80" x2="1620.88" y2="440.80" stroke="#374151"/>
<line x1="1592.88" y1="342.08" x2="1620.88" y2="342.08" stroke="#374151"/>
<rect x="1585.88" y="378.98" width="42.00" height="28.36" fill="#4e79a7" fill-opacity="0.65" stroke="#4e79a7"/>
<line x1="1585.88" y1="396.02" x2="1627.88" y2="396.02" stroke="#111827" stroke-width="3"/>
<text x="1606.88" y="528" transform="rotate(55 1606.88 528)" text-anchor="start" font-family="Arial" font-size="11">timing/c200/2pc</text>
<line x1="1680.62" y1="429.99" x2="1680.62" y2="75.00" stroke="#374151"/>
<line x1="1666.62" y1="429.99" x2="1694.62" y2="429.99" stroke="#374151"/>
<line x1="1666.62" y1="75.00" x2="1694.62" y2="75.00" stroke="#374151"/>
<rect x="1659.62" y="75.00" width="42.00" height="349.06" fill="#f28e2b" fill-opacity="0.65" stroke="#f28e2b"/>
<line x1="1659.62" y1="363.60" x2="1701.62" y2="363.60" stroke="#111827" stroke-width="3"/>
<text x="1680.62" y="528" transform="rotate(55 1680.62 528)" text-anchor="start" font-family="Arial" font-size="11">timing/c200/saga</text>
<line x1="1754.38" y1="427.85" x2="1754.38" y2="320.03" stroke="#374151"/>
<line x1="1740.38" y1="427.85" x2="1768.38" y2="427.85" stroke="#374151"/>
<line x1="1740.38" y1="320.03" x2="1768.38" y2="320.03" stroke="#374151"/>
<rect x="1733.38" y="331.08" width="42.00" height="90.97" fill="#4e79a7" fill-opacity="0.65" stroke="#4e79a7"/>
<line x1="1733.38" y1="395.36" x2="1775.38" y2="395.36" stroke="#111827" stroke-width="3"/>
<text x="1754.38" y="528" transform="rotate(55 1754.38 528)" text-anchor="start" font-family="Arial" font-size="11">timing/c400/2pc</text>
<line x1="1828.12" y1="408.09" x2="1828.12" y2="75.00" stroke="#374151"/>
<line x1="1814.12" y1="408.09" x2="1842.12" y2="408.09" stroke="#374151"/>
<line x1="1814.12" y1="75.00" x2="1842.12" y2="75.00" stroke="#374151"/>
<rect x="1807.12" y="75.00" width="42.00" height="285.86" fill="#f28e2b" fill-opacity="0.65" stroke="#f28e2b"/>
<line x1="1807.12" y1="344.42" x2="1849.12" y2="344.42" stroke="#111827" stroke-width="3"/>
<text x="1828.12" y="528" transform="rotate(55 1828.12 528)" text-anchor="start" font-family="Arial" font-size="11">timing/c400/saga</text>
<rect x="1650" y="18" width="14" height="14" fill="#4e79a7"/><text x="1670" y="30" font-family="Arial" font-size="13">2PC</text>
<rect x="1730" y="18" width="14" height="14" fill="#f28e2b"/><text x="1750" y="30" font-family="Arial" font-size="13">Saga</text>
</svg>
