<svg xmlns="http://www.w3.org/2000/svg" width="1900" height="700" viewBox="0 0 1900 700">
<rect width="100%" height="100%" fill="#ffffff"/>
<text x="950.0" y="38" text-anchor="middle" font-family="Arial" font-size="24" font-weight="bold">Boxplot de tasa de aborto por condición</text>
<line x1="95" y1="510.00" x2="1865" y2="510.00" stroke="#e5e7eb"/>
<text x="85" y="514.00" text-anchor="end" font-family="Arial" font-size="12" fill="#374151">0%</text>
<line x1="95" y1="423.00" x2="1865" y2="423.00" stroke="#e5e7eb"/>
<text x="85" y="427.00" text-anchor="end" font-family="Arial" font-size="12" fill="#374151">20%</text>
<line x1="95" y1="336.00" x2="1865" y2="336.00" stroke="#e5e7eb"/>
<text x="85" y="340.00" text-anchor="end" font-family="Arial" font-size="12" fill="#374151">40%</text>
<line x1="95" y1="249.00" x2="1865" y2="249.00" stroke="#e5e7eb"/>
<text x="85" y="253.00" text-anchor="end" font-family="Arial" font-size="12" fill="#374151">60%</text>
<line x1="95" y1="162.00" x2="1865" y2="162.00" stroke="#e5e7eb"/>
<text x="85" y="166.00" text-anchor="end" font-family="Arial" font-size="12" fill="#374151">80%</text>
<line x1="95" y1="75.00" x2="1865" y2="75.00" stroke="#e5e7eb"/>
<text x="85" y="79.00" text-anchor="end" font-family="Arial" font-size="12" fill="#374151">100%</text>
<line x1="95" y1="75" x2="95" y2="510" stroke="#111827"/>
<line x1="95" y1="510" x2="1865" y2="510" stroke="#111827"/>
<line x1="131.88" y1="510.00" x2="131.88" y2="510.00" stroke="#374151"/>
<line x1="117.88" y1="510.00" x2="145.88" y2="510.00" stroke="#374151"/>
<line x1="117.88" y1="510.00" x2="145.88" y2="510.00" stroke="#374151"/>
<rect x="110.88" y="510.00" width="42.00" height="1.00" fill="#4e79a7" fill-opacity="0.65" stroke="#4e79a7"/>
<line x1="110.88" y1="510.00" x2="152.88" y2="510.00" stroke="#111827" stroke-width="3"/>
<text x="131.88" y="528" transform="rotate(55 131.88 528)" text-anchor="start" font-family="Arial" font-size="11">none/c50/2pc</text>
<line x1="205.62" y1="510.00" x2="205.62" y2="441.76" stroke="#374151"/>
<line x1="191.62" y1="510.00" x2="219.62" y2="510.00" stroke="#374151"/>
<line x1="191.62" y1="441.76" x2="219.62" y2="441.76" stroke="#374151"/>
<rect x="184.62" y="485.90" width="42.00" height="24.10" fill="#f28e2b" fill-opacity="0.65" stroke="#f28e2b"/>
<line x1="184.62" y1="489.23" x2="226.62" y2="489.23" stroke="#111827" stroke-width="3"/>
<text x="205.62" y="528" transform="rotate(55 205.62 528)" text-anchor="start" font-family="Arial" font-size="11">none/c50/saga</text>
<line x1="279.38" y1="502.55" x2="279.38" y2="419.67" stroke="#374151"/>
<line x1="265.38" y1="502.55" x2="293.38" y2="502.55" stroke="#374151"/>
<line x1="265.38" y1="419.67" x2="293.38" y2="419.67" stroke="#374151"/>
<rect x="258.38" y="491.30" width="42.00" height="4.67" fill="#4e79a7" fill-opacity="0.65" stroke="#4e79a7"/>
<line x1="258.38" y1="495.97" x2="300.38" y2="495.97" stroke="#111827" stroke-width="3"/>
<text x="279.38" y="528" transform="rotate(55 279.38 528)" text-anchor="start" font-family="Arial" font-size="11">none/c100/2pc</text>
<line x1="353.12" y1="507.90" x2="353.12" y2="491.80" stroke="#374151"/>
<line x1="339.12" y1="507.90" x2="367.12" y2="507.90" stroke="#374151"/>
<line x1="339.12" y1="491.80" x2="367.12" y2="491.80" stroke="#374151"/>
<rect x="332.12" y="496.15" width="42.00" height="7.43" fill="#f28e2b" fill-opacity="0.65" stroke="#f28e2b"/>
<line x1="332.12" y1="502.61" x2="374.12" y2="502.61" stroke="#111827" stroke-width="3"/>
<text x="353.12" y="528" transform="rotate(55 353.12 528)" text-anchor="start" font-family="Arial" font-size="11">none/c100/saga</text>
<line x1="426.88" y1="305.44" x2="426.88" y2="200.90" stroke="#374151"/>
<line x1="412.88" y1="305.44" x2="440.88" y2="305.44" stroke="#374151"/>
<line x1="412.88" y1="200.90" x2="440.88" y2="200.90" stroke="#374151"/>
<rect x="405.88" y="205.42" width="42.00" height="49.46" fill="#4e79a7" fill-opacity="0.65" stroke="#4e79a7"/>
<line x1="405.88" y1="235.54" x2="447.88" y2="235.54" stroke="#111827" stroke-width="3"/>
<text x="426.88" y="528" transform="rotate(55 426.88 528)" text-anchor="start" font-family="Arial" font-size="11">none/c200/2pc</text>
<line x1="500.62" y1="341.28" x2="500.62" y2="219.70" stroke="#374151"/>
<line x1="486.62" y1="341.28" x2="514.62" y2="341.28" stroke="#374151"/>
<line x1="486.62" y1="219.70" x2="514.62" y2="219.70" stroke="#374151"/>
<rect x="479.62" y="267.56" width="42.00" height="59.92" fill="#f28e2b" fill-opacity="0.65" stroke="#f28e2b"/>
<line x1="479.62" y1="275.56" x2="521.62" y2="275.56" stroke="#111827" stroke-width="3"/>
<text x="500.62" y="528" transform="rotate(55 500.62 528)" text-anchor="start" font-family="Arial" font-size="11">none/c200/saga</text>
<line x1="574.38" y1="153.30" x2="574.38" y2="99.65" stroke="#374151"/>
<line x1="560.38" y1="153.30" x2="588.38" y2="153.30" stroke="#374151"/>
<line x1="560.38" y1="99.65" x2="588.38" y2="99.65" stroke="#374151"/>
<rect x="553.38" y="99.68" width="42.00" height="26.36" fill="#4e79a7" fill-opacity="0.65" stroke="#4e79a7"/>
<line x1="553.38" y1="103.37" x2="595.38" y2="103.37" stroke="#111827" stroke-width="3"/>
<text x="574.38" y="528" transform="rotate(55 574.38 528)" text-anchor="start" font-family="Arial" font-size="11">none/c400/2pc</text>
<line x1="648.12" y1="345.00" x2="648.12" y2="99.17" stroke="#374151"/>
<line x1="634.12" y1="345.00" x2="662.12" y2="345.00" stroke="#374151"/>
<line x1="634.12" y1="99.17" x2="662.12" y2="99.17" stroke="#374151"/>
<rect x="627.12" y="118.50" width="42.00" height="28.51" fill="#f28e2b" fill-opacity="0.65" stroke="#f28e2b"/>
<line x1="627.12" y1="121.61" x2="669.12" y2="121.61" stroke="#111827" stroke-width="3"/>
<text x="648.12" y="528" transform="rotate(55 648.12 528)" text-anchor="start" font-family="Arial" font-size="11">none/c400/saga</text>
<line x1="721.88" y1="475.34" x2="721.88" y2="432.84" stroke="#374151"/>
<line x1="707.88" y1="475.34" x2="735.88" y2="475.34" stroke="#374151"/>
<line x1="707.88" y1="432.84" x2="735.88" y2="432.84" stroke="#374151"/>
<rect x="700.88" y="433.96" width="42.00" height="23.90" fill="#4e79a7" fill-opacity="0.65" stroke="#4e79a7"/>
<line x1="700.88" y1="435.98" x2="742.88" y2="435.98" stroke="#111827" stroke-width="3"/>
<text x="721.88" y="528" transform="rotate(55 721.88 528)" text-anchor="start" font-family="Arial" font-size="11">omission/c50/2pc</text>
<line x1="795.62" y1="467.43" x2="795.62" y2="417.21" stroke="#374151"/>
<line x1="781.62" y1="467.43" x2="809.62" y2="467.43" stroke="#374151"/>
<line x1="781.62" y1="417.21" x2="809.62" y2="417.21" stroke="#374151"/>
<rect x="774.62" y="436.96" width="42.00" height="29.65" fill="#f28e2b" fill-opacity="0.65" stroke="#f28e2b"/>
<line x1="774.62" y1="445.60" x2="816.62" y2="445.60" stroke="#111827" stroke-width="3"/>
<text x="795.62" y="528" transform="rotate(55 795.62 528)" text-anchor="start" font-family="Arial" font-size="11">omission/c50/saga</text>
<line x1="869.38" y1="465.14" x2="869.38" y2="416.79" stroke="#374151"/>
<line x1="855.38" y1="465.14" x2="883.38" y2="465.14" stroke="#374151"/>
<line x1="855.38" y1="416.79" x2="883.38" y2="416.79" stroke="#374151"/>
<rect x="848.38" y="432.92" width="42.00" height="25.24" fill="#4e79a7" fill-opacity="0.65" stroke="#4e79a7"/>
<line x1="848.38" y1="450.12" x2="890.38" y2="450.12" stroke="#111827" stroke-width="3"/>
<text x="869.38" y="528" transform="rotate(55 869.38 528)" text-anchor="start" font-family="Arial" font-size="11">omission/c100/2pc</text>
<line x1="943.12" y1="471.62" x2="943.12" y2="425.67" stroke="#374151"/>
<line x1="929.12" y1="471.62" x2="957.12" y2="471.62" stroke="#374151"/>
<line x1="929.12" y1="425.67" x2="957.12" y2="425.67" stroke="#374151"/>
<rect x="922.12" y="432.46" width="42.00" height="36.96" fill="#f28e2b" fill-opacity="0.65" stroke="#f28e2b"/>
<line x1="922.12" y1="459.70" x2="964.12" y2="459.70" stroke="#111827" stroke-width="3"/>
<text x="943.12" y="528" transform="rotate(55 943.12 528)" text-anchor="start" font-family="Arial" font-size="11">omission/c100/saga</text>
<line x1="1016.88" y1="258.67" x2="1016.88" y2="202.83" stroke="#374151"/>
<line x1="1002.88" y1="258.67" x2="1030.88" y2="258.67" stroke="#374151"/>
<line x1="1002.88" y1="202.83" x2="1030.88" y2="202.83" stroke="#374151"/>
<rect x="995.88" y="232.62" width="42.00" height="20.90" fill="#4e79a7" fill-opacity="0.65" stroke="#4e79a7"/>
<line x1="995.88" y1="234.47" x2="1037.88" y2="234.47" stroke="#111827" stroke-width="3"/>
<text x="1016.88" y="528" transform="rotate(55 1016.88 528)" text-anchor="start" font-family="Arial" font-size="11">omission/c200/2pc</text>
<line x1="1090.62" y1="304.91" x2="1090.62" y2="242.80" stroke="#374151"/>
<line x1="1076.62" y1="304.91" x2="1104.62" y2="304.91" stroke="#374151"/>
<line x1="1076.62" y1="242.80" x2="1104.62" y2="242.80" stroke="#374151"/>
<rect x="1069.62" y="243.13" width="42.00" height="21.26" fill="#f28e2b" fill-opacity="0.65" stroke="#f28e2b"/>
<line x1="1069.62" y1="256.25" x2="1111.62" y2="256.25" stroke="#111827" stroke-width="3"/>
<text x="1090.62" y="528" transform="rotate(55 1090.62 528)" text-anchor="start" font-family="Arial" font-size="11">omission/c200/saga</text>
<line x1="1164.38" y1="154.63" x2="1164.38" y2="80.35" stroke="#374151"/>
<line x1="1150.38" y1="154.63" x2="1178.38" y2="154.63" stroke="#374151"/>
<line x1="1150.38" y1="80.35" x2="1178.38" y2="80.35" stroke="#374151"/>
<rect x="1143.38" y="88.51" width="42.00" height="43.92" fill="#4e79a7" fill-opacity="0.65" stroke="#4e79a7"/>
<line x1="1143.38" y1="114.06" x2="1185.38" y2="114.06" stroke="#111827" stroke-width="3"/>
<text x="1164.38" y="528" transform="rotate(55 1164.38 528)" text-anchor="start" font-family="Arial" font-size="11">omission/c400/2pc</text>
<line x1="1238.12" y1="140.19" x2="1238.12" y2="87.79" stroke="#374151"/>
<line x1="1224.12" y1="140.19" x2="1252.12" y2="140.19" stroke="#374151"/>
<line x1="1224.12" y1="87.79" x2="1252.12" y2="87.79" stroke="#374151"/>
<rect x="1217.12" y="99.29" width="42.00" height="36.24" fill="#f28e2b" fill-opacity="0.65" stroke="#f28e2b"/>
<line x1="1217.12" y1="106.49" x2="1259.12" y2="106.49" stroke="#111827" stroke-width="3"/>
<text x="1238.12" y="528" transform="rotate(55 1238.12 528)" text-anchor="start" font-family="Arial" font-size="11">omission/c400/saga</text>
<line x1="1311.88" y1="510.00" x2="1311.88" y2="484.15" stroke="#374151"/>
<line x1="1297.88" y1="510.00" x2="1325.88" y2="510.00" stroke="#374151"/>
<line x1="1297.88" y1="484.15" x2="1325.88" y2="484.15" stroke="#374151"/>
<rect x="1290.88" y="510.00" width="42.00" height="1.00" fill="#4e79a7" fill-opacity="0.65" stroke="#4e79a7"/>
<line x1="1290.88" y1="510.00" x2="1332.88" y2="510.00" stroke="#111827" stroke-width="3"/>
<text x="1311.88" y="528" transform="rotate(55 1311.88 528)" text-anchor="start" font-family="Arial" font-size="11">timing/c50/2pc</text>
<line x1="1385.62" y1="510.00" x2="1385.62" y2="491.68" stroke="#374151"/>
<line x1="1371.62" y1="510.00" x2="1399.62" y2="510.00" stroke="#374151"/>
<line x1="1371.62" y1="491.68" x2="1399.62" y2="491.68" stroke="#374151"/>
<rect x="1364.62" y="510.00" width="42.00" height="1.00" fill="#f28e2b" fill-opacity="0.65" stroke="#f28e2b"/>
<line x1="1364.62" y1="510.00" x2="1406.62" y2="510.00" stroke="#111827" stroke-width="3"/>
<text x="1385.62" y="528" transform="rotate(55 1385.62 528)" text-anchor="start" font-family="Arial" font-size="11">timing/c50/saga</text>
<line x1="1459.38" y1="488.14" x2="1459.38" y2="417.02" stroke="#374151"/>
<line x1="1445.38" y1="488.14" x2="1473.38" y2="488.14" stroke="#374151"/>
<line x1="1445.38" y1="417.02" x2="1473.38" y2="417.02" stroke="#374151"/>
<rect x="1438.38" y="481.00" width="42.00" height="5.06" fill="#4e79a7" fill-opacity="0.65" stroke="#4e79a7"/>
<line x1="1438.38" y1="483.01" x2="1480.38" y2="483.01" stroke="#111827" stroke-width="3"/>
<text x="1459.38" y="528" transform="rotate(55 1459.38 528)" text-anchor="start" font-family="Arial" font-size="11">timing/c100/2pc</text>
<line x1="1533.12" y1="507.31" x2="1533.12" y2="484.24" stroke="#374151"/>
<line x1="1519.12" y1="507.31" x2="1547.12" y2="507.31" stroke="#374151"/>
<line x1="1519.12" y1="484.24" x2="1547.12" y2="484.24" stroke="#374151"/>
<rect x="1512.12" y="487.59" width="42.00" height="15.11" fill="#f28e2b" fill-opacity="0.65" stroke="#f28e2b"/>
<line x1="1512.12" y1="498.70" x2="1554.12" y2="498.70" stroke="#111827" stroke-width="3"/>
<text x="1533.12" y="528" transform="rotate(55 1533.12 528)" text-anchor="start" font-family="Arial" font-size="11">timing/c100/saga</text>
<line x1="1606.88" y1="272.81" x2="1606.88" y2="175.38" stroke="#374151"/>
<line x1="1592.88" y1="272.81" x2="1620.88" y2="272.81" stroke="#374151"/>
<line x1="1592.88" y1="175.38" x2="1620.88" y2="175.38" stroke="#374151"/>
<rect x="1585.88" y="183.51" width="42.00" height="57.38" fill="#4e79a7" fill-opacity="0.65" stroke="#4e79a7"/>
<line x1="1585.88" y1="206.37" x2="1627.88" y2="206.37" stroke="#111827" stroke-width="3"/>
<text x="1606.88" y="528" transform="rotate(55 1606.88 528)" text-anchor="start" font-family="Arial" font-size="11">timing/c200/2pc</text>
<line x1="1680.62" y1="344.25" x2="1680.62" y2="254.21" stroke="#374151"/>
<line x1="1666.62" y1="344.25" x2="1694.62" y2="344.25" stroke="#374151"/>
<line x1="1666.62" y1="254.21" x2="1694.62" y2="254.21" stroke="#374151"/>
<rect x="1659.62" y="286.62" width="42.00" height="37.48" fill="#f28e2b" fill-opacity="0.65" stroke="#f28e2b"/>
<line x1="1659.62" y1="295.02" x2="1701.62" y2="295.02" stroke="#111827" stroke-width="3"/>
<text x="1680.62" y="528" transform="rotate(55 1680.62 528)" text-anchor="start" font-family="Arial" font-size="11">timing/c200/saga</text>
<line x1="1754.38" y1="148.78" x2="1754.38" y2="96.92" stroke="#374151"/>
<line x1="1740.38" y1="148.78" x2="1768.38" y2="148.78" stroke="#374151"/>
<line x1="1740.38" y1="96.92" x2="1768.38" y2="96.92" stroke="#374151"/>
<rect x="1733.38" y="116.75" width="42.00" height="16.04" fill="#4e79a7" fill-opacity="0.65" stroke="#4e79a7"/>
<line x1="1733.38" y1="121.66" x2="1775.38" y2="121.66" stroke="#111827" stroke-width="3"/>
<text x="1754.38" y="528" transform="rotate(55 1754.38 528)" text-anchor="start" font-family="Arial" font-size="11">timing/c400/2pc</text>
<line x1="1828.12" y1="161.36" x2="1828.12" y2="92.11" stroke="#374151"/>
<line x1="1814.12" y1="161.36" x2="1842.12" y2="161.36" stroke="#374151"/>
<line x1="1814.12" y1="92.11" x2="1842.12" y2="92.11" stroke="#374151"/>
<rect x="1807.12" y="113.22" width="42.00" height="29.57" fill="#f28e2b" fill-opacity="0.65" stroke="#f28e2b"/>
<line x1="1807.12" y1="132.05" x2="1849.12" y2="132.05" stroke="#111827" stroke-width="3"/>
<text x="1828.12" y="528" transform="rotate(55 1828.12 528)" text-anchor="start" font-family="Arial" font-size="11">timing/c400/saga</text>
<rect x="1650" y="18" width="14" height="14" fill="#4e79a7"/><text x="1670" y="30" font-family="Arial" font-size="13">2PC</text>
<rect x="1730" y="18" width="14" height="14" fill="#f28e2b"/><text x="1750" y="30" font-family="Arial" font-size="13">Saga</text>
</svg>
